<svg width="512" height="512" viewBox="0 0 512 512" fill="none" xmlns="http://www.w3.org/2000/svg">
<circle cx="256" cy="256" r="256" fill="white"/>
<circle cx="256" cy="256" r="256" fill="white"/>
<path d="M336.71 318.005L317.537 297.806L316.884 297.118L317.537 296.43L337.338 275.526L337.339 275.527C348.548 263.678 354.633 257.151 358.549 252.26C362.432 247.411 364.172 244.185 366.667 238.907L366.669 238.902C368.831 234.388 371.67 225.581 372.48 220.914L372.479 220.913C375.315 204.297 373.371 189.316 366.668 175.235L366.137 174.145C354.819 151.388 332.899 138.01 308.684 139.09L307.815 139.137C299.16 139.662 291.656 141.771 283.774 145.916L282.984 146.338C276.431 149.912 271.053 154.302 263.476 162.408L263.473 162.411L256.872 169.406L256.131 170.191L255.405 169.394L254.501 168.4L254.499 168.396C243.293 155.971 241.197 153.896 236.343 150.365H236.344C229.316 145.322 222.334 142.268 212.749 140.143H212.746C210.08 139.545 205.675 139.205 201.221 139.158C196.767 139.112 192.394 139.361 189.791 139.897L188.437 140.193C174.522 143.39 162.758 150.844 154.071 161.968L154.07 161.97C143.217 175.813 138.025 191.931 138.645 209.704L138.708 211.143C139.478 225.942 144.046 238.857 152.997 251.377V251.378L155.348 254.598L155.839 255.271L155.265 255.876L135.228 276.985L134.417 277.84L133.706 276.901L130.763 273.016L130.063 272.095C115.481 252.668 107.657 227.686 108.83 203.937C110.137 177.19 118.902 155.68 135.821 137.898V137.897C149.8 123.212 166.534 114.253 186.857 110.615H186.86C190.137 110.04 195.824 109.793 201.452 109.84C207.08 109.887 212.785 110.227 216.101 110.866V110.867C230.202 113.546 242.094 118.908 253.297 127.529V127.53C254.231 128.248 255.105 128.891 255.756 129.354C255.983 129.514 256.18 129.651 256.341 129.76C256.43 129.696 256.53 129.621 256.642 129.538C257.117 129.184 257.747 128.694 258.436 128.155C269.98 118.767 285.71 112.16 301.049 110.276H301.05C307.255 109.522 317.754 109.52 323.507 110.319V110.32C343.768 113.041 361.304 122.013 375.597 136.898L376.276 137.612C388.222 150.323 396.4 165.546 400.409 182.438L400.41 182.44C402.272 190.374 402.948 195.738 403.225 204.16V204.162C403.978 228.423 397.748 249.333 383.949 268.843C380.872 273.221 376.565 278.002 360.284 295.237L356.269 299.488C352.351 303.628 348.767 307.389 345.907 310.367C344 312.352 342.414 313.992 341.263 315.164C340.688 315.75 340.22 316.222 339.874 316.563C339.583 316.849 339.317 317.106 339.156 317.231L338.056 318.101L337.339 318.667L336.71 318.005Z" fill="#0D3EC6" stroke="#0D3EC6" stroke-width="2"/>
<path d="M255.556 404.258C255.489 404.245 255.428 404.23 255.396 404.219C255.355 404.202 255.288 404.171 255.261 404.156C255.209 404.127 255.172 404.1 255.155 404.088C255.12 404.062 255.091 404.038 255.079 404.027C255.051 404.003 255.023 403.977 255.002 403.956C254.956 403.912 254.896 403.852 254.826 403.782C254.685 403.64 254.482 403.432 254.223 403.164C253.702 402.626 252.943 401.834 251.974 400.817C250.034 398.783 247.243 395.842 243.81 392.212C236.943 384.952 227.503 374.935 217.149 363.903C206.797 352.893 195.864 341.283 186.592 331.442L165.994 309.599L152.518 295.318L151.868 294.63L152.52 293.943L161.871 284.093C164.426 281.401 166.776 278.945 168.503 277.162C169.366 276.271 170.076 275.545 170.579 275.041C170.83 274.79 171.035 274.588 171.183 274.447C171.255 274.378 171.323 274.315 171.381 274.266C171.408 274.243 171.447 274.208 171.492 274.176C171.513 274.161 171.555 274.131 171.609 274.101C171.637 274.085 171.685 274.06 171.747 274.036C171.797 274.017 171.929 273.971 172.104 273.971C172.227 273.978 172.414 274.02 172.479 274.044C172.52 274.061 172.585 274.093 172.61 274.107C172.659 274.136 172.695 274.164 172.71 274.175C172.743 274.2 172.77 274.222 172.782 274.232C172.81 274.256 172.838 274.283 172.86 274.305C172.909 274.351 172.973 274.415 173.05 274.491C173.205 274.646 173.429 274.874 173.716 275.168C174.291 275.757 175.131 276.624 176.205 277.738C178.354 279.967 181.448 283.188 185.257 287.162C192.875 295.11 203.355 306.069 214.867 318.114H214.868L255.988 361.19L277.385 338.73L277.384 338.729L299.465 315.468L300.19 314.703L300.915 315.468L310.659 325.732L310.661 325.734L320.365 335.999L321.019 336.69L320.361 337.377L288.537 370.656C279.775 379.825 271.788 388.155 265.977 394.194C263.071 397.214 260.709 399.662 259.065 401.354C258.244 402.2 257.6 402.859 257.157 403.308C256.936 403.531 256.763 403.706 256.641 403.826C256.581 403.885 256.527 403.936 256.484 403.976C256.465 403.994 256.436 404.02 256.406 404.045C256.393 404.056 256.362 404.081 256.323 404.107C256.305 404.12 256.264 404.148 256.209 404.176C256.196 404.182 256.01 404.285 255.753 404.285L255.556 404.258Z" fill="#0D3EC6" stroke="#0D3EC6" stroke-width="2"/>
</svg>
