<?xml version="1.0" encoding="UTF-8"?>
<svg id="Layer_1" data-name="Layer 1" xmlns="http://www.w3.org/2000/svg" xmlns:xlink="http://www.w3.org/1999/xlink" viewBox="0 0 627.278 251.408">
  <path id="logoMark__CompoundPathItem_" data-name="logoMark &amp;lt;CompoundPathItem&amp;gt;" d="M385.7212,89.7841c0-14.284,6.863-26.414,20.349-26.414s20.349,12.13,20.349,26.414-6.863,26.414-20.349,26.414-20.349-12.13-20.349-26.414m-3.192,0c0,16.04,8.299,29.606,23.541,29.606s23.541-13.566,23.541-29.606-8.299-29.606-23.541-29.606-23.541,13.566-23.541,29.606m-34.393,26.414c-7.661,0-12.609-3.831-15.561-9.816-.16-.399-1.117-3.032-1.117-5.825,0-8.379,6.463-15.162,16.678-15.162s17.157,6.783,17.157,15.162-6.943,15.641-17.157,15.641m-21.945-26.414c0,16.04,6.703,29.606,21.945,29.606,11.97,0,20.349-8.698,20.349-18.833s-8.379-18.354-20.349-18.354c-9.417,0-16.12,5.107-18.594,12.289-.079-1.516-.159-3.112-.159-4.708,0-14.284,5.267-26.414,18.753-26.414,6.464,0,12.289,3.112,14.922,7.501l2.474-1.755c-3.192-5.187-9.815-8.938-17.396-8.938-15.242,0-21.945,13.566-21.945,29.606m-39.453,.399h2.394c12.449,0,18.753,6.304,18.753,13.007,0,6.863-6.304,13.008-18.753,13.008-11.731,0-18.115-5.427-18.673-11.731l-3.192,.4789c.798,7.82,8.618,14.444,21.865,14.444,14.204,0,21.945-7.581,21.945-16.2,0-6.384-4.309-12.209-12.369-14.763,5.985-2.553,9.576-7.501,9.576-13.246,0-8.379-7.581-15.003-19.152-15.003-10.773,0-18.274,5.746-19.072,13.2469l3.192,.479c.558-5.985,6.703-10.534,15.88-10.534,9.815,0,15.96,5.187,15.96,11.811,0,6.463-5.347,11.81-15.96,11.81h-2.394v3.192Z" style="fill: #e64661;"/>
  <a xlink:href="52.5811764705882">
    <path id="logoMark__PathItem_" data-name="logoMark &amp;lt;PathItem&amp;gt;" d="M182.333,69.6429l4.271-4.269-.264-.264c-16.192-16.193-37.719-25.11-60.616-25.11s-44.425,8.917-60.616,25.11c-16.191,16.188-25.108,37.715-25.108,60.614s8.917,44.426,25.108,60.62c16.166,16.162,37.693,25.064,60.616,25.064s44.45-8.902,60.615-25.064l.264-.264-4.27-4.27-.264,.263c-15.027,15.026-35.038,23.3-56.345,23.299-21.311-.002-41.321-8.276-56.346-23.299-15.051-15.05-23.34-35.063-23.34-56.349s8.289-41.296,23.34-56.345c15.051-15.052,35.062-23.341,56.346-23.341s41.295,8.289,56.345,23.341l.264,.264Z" style="fill: #e64661;"/>
  </a>
  <path id="logoMark__CompoundPathItem_-2" data-name="logoMark &amp;lt;CompoundPathItem&amp;gt;" d="M231.8518,130.0528l-17.145,14.908c-3.049,2.652-5.317,1.473-6.397,.534l-7.384-6.369,17.133-14.897c2.353-2.047,4.476-2.277,6.308-.684l7.485,6.508Zm-40.233-2.038l-8.751-16.352c-2.757-5.152-.183-10.253-.083-10.448l8.834-16.506,8.833,16.506c.101,.195,2.675,5.296-.082,10.448l-8.751,16.352Zm-9.308,11.111l-7.383,6.369c-1.08,.939-3.348,2.118-6.398-.534l-17.144-14.908,7.484-6.508c1.833-1.593,3.956-1.363,6.309,.684l17.132,14.897Zm6.159,12.459l3.122-5.835,.027,.049,.027-.049,3.122,5.835c.029,.058,1.05,2.139-.041,4.178l-3.108,5.807-3.108-5.807c-1.091-2.039-.07-4.12-.041-4.178m53.983-18.897l-13.521-11.757c-1.451-1.261-3.188-2.132-5.024-2.517-2.474-.52-6.29-.386-10.414,3.201l-16.707,14.528,9.528-17.804c4.431-8.28,.262-16.262,.082-16.598l-14.72-27.505-.058,.109-.059-.109-14.719,27.505c-.18,.336-4.349,8.318,.082,16.598l9.528,17.804-16.707-14.528c-4.125-3.587-7.94-3.7209-10.414-3.201-1.836,.385-3.573,1.256-5.024,2.517l-13.521,11.757,23.181,20.157c2.78,2.418,5.597,3.346,8.16,3.346,2.929,0,5.527-1.213,7.356-2.803l6.585-5.679-2.619,4.8929c-.921,1.721-1.949,5.626,.041,9.345l8.13,15.192,8.13-15.192c1.99-3.719,.962-7.624,.041-9.345l-2.619-4.8929,6.585,5.679c1.829,1.59,4.427,2.803,7.355,2.803,2.564,0,5.381-.928,8.161-3.346l23.181-20.157Z" style="fill: #e64661;"/>
  <a xlink:href="52.5811764705882">
    <polygon id="logoMark__PathItem_-2" data-name="logoMark &amp;lt;PathItem&amp;gt;" points="295.9674 181.8385 274.9324 131.9495 268.3354 131.9495 292.7424 189.9075 299.1924 189.9075 323.5994 131.9495 317.0024 131.9495 295.9674 181.8385" style="fill: #e64661;"/>
  </a>
  <a xlink:href="52.5811764705882">
    <rect id="logoMark__PathItem_-3" data-name="logoMark &amp;lt;PathItem&amp;gt;" x="336.4537" y="131.9487" width="6.088" height="57.958" style="fill: #e64661;"/>
  </a>
  <path id="logoMark__CompoundPathItem_-3" data-name="logoMark &amp;lt;CompoundPathItem&amp;gt;" d="M401.1392,150.7936c0,1.764-.332,3.437-.985,4.972-.655,1.536-1.574,2.888-2.73,4.02-1.161,1.135-2.53,2.043-4.07,2.699-1.535,.654-3.207,.986-4.971,.986h-19.939v-25.433h19.939c1.764,0,3.437,.3311,4.971,.984,1.537,.656,2.905,1.576,4.065,2.735,1.159,1.16,2.079,2.528,2.735,4.065,.653,1.535,.985,3.207,.985,4.972m1.792,11.942c1.315-1.616,2.37-3.462,3.137-5.487,.769-2.033,1.159-4.205,1.159-6.455,0-2.578-.501-5.04-1.49-7.321-.986-2.2729-2.348-4.287-4.047-5.986-1.698-1.699-3.713-3.061-5.987-4.047-2.28-.989-4.743-1.49-7.32-1.49h-26.027v57.957h6.088v-20.348h17.833l13.406,20.348h7.224l-13.796-20.895c1.797-.463,3.497-1.1819,5.067-2.1429,1.837-1.123,3.436-2.514,4.753-4.1331" style="fill: #e64661;"/>
  <a xlink:href="52.5811764705882">
    <polygon id="logoMark__PathItem_-4" data-name="logoMark &amp;lt;PathItem&amp;gt;" points="416.2369 138.0367 438.0219 138.0367 438.0219 189.9068 444.1099 189.9068 444.1099 138.0367 465.8959 138.0367 465.8959 131.9498 416.2369 131.9498 416.2369 138.0367" style="fill: #e64661;"/>
  </a>
  <a xlink:href="52.5811764705882">
    <path id="logoMark__PathItem_-5" data-name="logoMark &amp;lt;PathItem&amp;gt;" d="M520.5582,167.3121c0,2.453-.466,4.783-1.383,6.926-.922,2.149-2.205,4.053-3.814,5.661-1.609,1.61-3.514,2.893-5.661,3.813-2.143,.918-4.473,1.384-6.926,1.384s-4.783-.466-6.926-1.385c-2.147-.919-4.051-2.201-5.662-3.812-1.61-1.608-2.892-3.513-3.812-5.661-.918-2.142-1.384-4.473-1.384-6.926v-35.363h-6.088v35.363c0,3.267,.636,6.388,1.89,9.276,1.25,2.882,2.973,5.433,5.123,7.583,2.153,2.151,4.704,3.875,7.583,5.123,2.889,1.254,6.009,1.89,9.276,1.89s6.387-.636,9.277-1.89c2.88-1.249,5.431-2.973,7.582-5.124,2.149-2.15,3.873-4.7,5.124-7.582,1.254-2.889,1.889-6.0099,1.889-9.276v-35.363h-6.088v35.363Z" style="fill: #e64661;"/>
  </a>
  <a xlink:href="52.5811764705882">
    <path id="logoMark__PathItem_-6" data-name="logoMark &amp;lt;PathItem&amp;gt;" d="M585.544,167.2086c-1.136-1.83-2.653-3.361-4.51-4.553-1.822-1.17-3.914-2.134-6.219-2.866-2.271-.721-4.637-1.37-7.031-1.928-2.392-.559-4.717-1.116-6.975-1.674-2.215-.548-4.219-1.22-5.955-1.998-1.687-.754-3.061-1.732-4.085-2.906-.98-1.123-1.476-2.604-1.476-4.4,0-1.372,.335-2.676,.997-3.876,.669-1.214,1.653-2.297,2.925-3.219,1.287-.934,2.896-1.679,4.783-2.215,1.899-.539,4.068-.813,6.446-.813,2.324,0,4.451,.273,6.323,.812,1.863,.537,3.476,1.284,4.791,2.219,1.299,.924,2.31,2.009,3.005,3.226,.684,1.196,1.031,2.497,1.031,3.866v.65h6.088v-.65c0-2.227-.535-4.369-1.592-6.368-1.05-1.991-2.534-3.727-4.409-5.1609-1.857-1.42-4.11-2.569-6.697-3.413-2.5779-.842-5.451-1.269-8.54-1.269-3.247,0-6.214,.427-8.819,1.268-2.616,.845-4.858,1.995-6.666,3.42-1.824,1.437-3.253,3.175-4.248,5.167-1,1.997-1.506,4.135-1.506,6.356,0,2.667,.584,4.945,1.736,6.771,1.139,1.804,2.658,3.309,4.514,4.473,1.825,1.143,3.918,2.08,6.219,2.783,2.261,.692,4.624,1.327,7.026,1.887,2.3911,.558,4.716,1.117,6.974,1.675,2.2061,.544,4.205,1.24,5.941,2.069,1.692,.809,3.07,1.827,4.094,3.028,.983,1.149,1.481,2.672,1.481,4.526,0,1.479-.363,2.905-1.08,4.24-.719,1.341-1.781,2.514-3.155,3.488-1.394,.989-3.166,1.79-5.266,2.379-2.114,.593-4.552,.894-7.245,.894-2.534,0-4.863-.301-6.923-.8929-2.053-.59-3.829-1.393-5.279-2.386-1.431-.979-2.561-2.158-3.359-3.506-.787-1.328-1.186-2.747-1.186-4.216v-.65h-6.088v.65c0,2.386,.577,4.652,1.716,6.736,1.13,2.067,2.734,3.895,4.767,5.433,2.018,1.528,4.448,2.743,7.22,3.613,2.765,.867,5.837,1.307,9.132,1.307,3.506,0,6.698-.44,9.489-1.307,2.801-.87,5.22-2.087,7.189-3.618,1.9821-1.542,3.52-3.375,4.569-5.447,1.053-2.076,1.587-4.336,1.587-6.717,0-2.718-.584-5.036-1.7339-6.887" style="fill: #e64661;"/>
  </a>
</svg>