<?xml version="1.0" encoding="UTF-8" standalone="no"?>
<svg
   xmlns:svg="http://www.w3.org/2000/svg"
   xmlns="http://www.w3.org/2000/svg"
   version="1.1"
   id="svg4416"
   viewBox="0 0 577.82227 362.17042"
   height="362.17041"
   width="577.82227">
  <defs
     id="defs4418" />
  <g
     transform="translate(-93.946008,-202.70556)"
     id="layer1">
    <path
       id="path5026"
       d="m 150.71359,302.05124 c -28.74872,0 -50.941412,4.14474 -50.941412,31.91211 0,30.56513 11.523092,39.04113 50.501962,39.25 l 39.33398,0 c 14.85455,0 18.13281,2.66092 18.13281,9.31055 0,6.86875 -5.02209,8.42383 -24.9082,8.42383 l -14.85351,0 c -23.76938,0 -25.95118,-4.21722 -25.95118,-10.41797 l -43.082032,0 c 0,27.64225 14.145142,36.58984 52.685552,36.58984 l 39.73047,0 c 47.70577,0 59.46094,-7.64269 59.46094,-37.25781 0,-19.8965 -3.69542,-36.64063 -53.78125,-36.64063 l -29.03125,0 c -21.87994,0 -25.15821,-1.75268 -25.15821,-6.61718 0,-7.71438 4.58246,-8.37305 28.83203,-8.37305 25.13687,0 29.06174,1.09647 31.25391,7.71484 l 41.78711,0 c -0.0226,-1.38735 -0.0773,-2.71106 -0.15625,-3.99609 l 37.60352,78.3457 14.83398,0 c 0,12.85025 -10.68932,16.11914 -27.25586,16.11914 l -3.49609,0 0,26.60743 c 4.14425,0.22962 9.15512,0.87695 17.01562,0.87695 21.15965,0 33.81028,-4.79156 40.35547,-18.32031 l 47.08398,-99.33594 0,78.96094 41.94336,0 0,-56.16993 c 0,-15.95062 10.6385,-24.26171 28.44727,-24.26171 l 9.56055,0 c 18.23676,0 26.93359,5.47089 26.93359,16.40039 l 0,64.03125 41.93164,0 0,-64.03125 c 0,-48.02938 -36.25282,-49.11524 -62.13086,-49.11524 -22.37056,0 -36.92371,4.14413 -44.31445,19.625 l -0.42774,0 0,-17.69336 -26.65625,0 0.0117,-0.0234 -45.36718,0 -32.06836,77.3418 -32.06836,-77.3418 -45.36719,0 2.86328,5.96485 c -9.06198,-5.77428 -25.32776,-7.87891 -54.00586,-7.87891 l -29.28125,0 z m 423.14844,0.006 c -35.35656,0 -50.19141,5.01131 -50.19141,35.17969 l 40.56641,0 c 0.43842,-7.90213 3.94463,-8.99805 16.18945,-8.99805 l 24.7207,0 c 16.39952,0 19.67774,3.94599 19.67774,14.92774 l 0,9.78125 c -8.09015,-8.24675 -20.77466,-8.9043 -43.74024,-8.9043 -40.56557,0 -61.50586,1.73225 -61.50586,32.07813 l 0,9.29101 c 0,26.25375 16.35708,31.92238 41.89063,31.70313 l 28.61328,0 c 20.98219,0 25.34709,-2.40211 36.92383,-14.39649 l 0,12.46485 39.76172,0 0,-73.11524 c 0,-26.27475 -15.29472,-40.01172 -44.12696,-40.01172 l -48.77929,0 z m 7.70312,65.44141 18.57032,0 c 23.16392,0 25.56445,3.09089 25.56445,11.49414 0,7.5265 -2.61826,11.95117 -31.46094,11.95117 l -12.01562,0 c -16.38908,0 -22.06836,-2.88086 -22.06836,-10.17773 0,-9.29063 3.71622,-13.26758 21.41015,-13.26758 z"
       style="fill:#003b87;fill-opacity:1;fill-rule:nonzero;stroke:none" />
    <path
       id="path5046"
       style="fill:#d41c1c;fill-opacity:1;fill-rule:nonzero;stroke:none"
       d="m 444.69036,477.75538 c 44.72025,-25.90938 66.2557,-41.44238 87.25877,-56.7145 l 2.48445,-1.31538 c -27.76747,24.782 -61.1302,48.96888 -98.65805,70.62963 -131.23786,75.76556 -263.63443,92.13376 -295.71317,36.5675 -15.06334,-26.08688 -5.35516,-63.36413 22.74636,-103.43913 -21.94257,35.51325 -28.46689,68.08263 -14.91719,91.55965 32.08918,55.57671 164.48576,39.20851 295.72362,-36.55702 l 1.07521,-0.73075 z M 573.99701,224.15275 c 22.47496,5.92925 63.92784,23.7485 50.29463,74.64863 l -0.29229,1.54487 c 8.26761,-22.882 8.49726,-43.44662 -0.87686,-59.67912 -32.08919,-55.57675 -164.48576,-39.2085 -295.71318,36.557 -9.76038,5.637 -19.24934,11.4515 -28.42514,17.39125 l 1.92077,-0.783 C 373.61188,249.4775 490.67371,201.84488 572.8383,224.0275 l 1.15871,0.12525" />
  </g>
</svg>
